HIERARCHY
ROOT Hips
{
	OFFSET 0.000000 0.000000 0.000000 
	CHANNELS 6 Xposition Yposition Zposition Zrotation Yrotation Xrotation
	JOINT LeftUpLeg
	{
		OFFSET 1.363060 -1.794630 0.839290 
		CHANNELS 3 Zrotation Yrotation Xrotation
		JOINT LeftLeg
		{
			OFFSET 2.448110 -6.726130 0.000000 
			CHANNELS 3 Zrotation Yrotation Xrotation
			JOINT LeftFoot
			{
				OFFSET 2.562200 -7.039590 0.000000 
				CHANNELS 3 Zrotation Yrotation Xrotation
				JOINT LeftToeBase
				{
					OFFSET 0.157640 -0.433110 2.322550 
					CHANNELS 3 Zrotation Yrotation Xrotation
					End Site
					{
						OFFSET 0.000000 0.000000 0.000000 
					}
				}
			}
		}
	}
	JOINT RightUpLeg
	{
		OFFSET -1.305520 -1.794630 0.839290 
		CHANNELS 3 Zrotation Yrotation Xrotation
		JOINT RightLeg
		{
			OFFSET -2.542530 -6.985550 0.000000 
			CHANNELS 3 Zrotation Yrotation Xrotation
			JOINT RightFoot
			{
				OFFSET -2.568260 -7.056230 0.000000 
				CHANNELS 3 Zrotation Yrotation Xrotation
				JOINT RightToeBase
				{
					OFFSET -0.164730 -0.452590 2.363150 
					CHANNELS 3 Zrotation Yrotation Xrotation
					End Site
					{
						OFFSET 0.000000 0.000000 0.000000 
					}
				}
			}
		}
	}
	JOINT Spine
	{
		OFFSET 0.028270 2.035590 -0.193380 
		CHANNELS 3 Zrotation Yrotation Xrotation
		JOINT Spine1
		{
			OFFSET 0.056720 2.048850 -0.042750 
			CHANNELS 3 Zrotation Yrotation Xrotation
			JOINT Neck1
			{
				OFFSET -0.054170 1.746240 0.172020 
				CHANNELS 3 Zrotation Yrotation Xrotation
				JOINT Head
				{
					OFFSET 0.104070 1.761360 -0.123970 
					CHANNELS 3 Zrotation Yrotation Xrotation
					End Site
					{
						OFFSET 0.000000 0.000000 0.000000 
					}
				}
			}
			JOINT LeftArm
			{
				OFFSET 3.362410 1.200890 -0.311210 
				CHANNELS 3 Zrotation Yrotation Xrotation
				JOINT LeftForeArm
				{
					OFFSET 4.983000 -0.000000 -0.000000 
					CHANNELS 3 Zrotation Yrotation Xrotation
					JOINT LeftHand
					{
						OFFSET 3.483560 -0.000000 -0.000000 
						CHANNELS 3 Zrotation Yrotation Xrotation
						JOINT LeftHandIndex1
						{
							OFFSET 0.715260 -0.000000 -0.000000 
							CHANNELS 3 Zrotation Yrotation Xrotation
							End Site
							{
								OFFSET 0.000000 0.000000 0.000000 
							}
						}
					}
				}
			}
			JOINT RightArm
			{
				OFFSET -3.136600 1.374050 -0.404650 
				CHANNELS 3 Zrotation Yrotation Xrotation
				JOINT RightForeArm
				{
					OFFSET -5.241900 -0.000000 -0.000000 
					CHANNELS 3 Zrotation Yrotation Xrotation
					JOINT RightHand
					{
						OFFSET -3.444170 -0.000000 -0.000000 
						CHANNELS 3 Zrotation Yrotation Xrotation
						JOINT RightHandIndex1
						{
							OFFSET -0.622530 -0.000000 -0.000000 
							CHANNELS 3 Zrotation Yrotation Xrotation
							End Site
							{
								OFFSET 0.000000 0.000000 0.000000 
							}
						}
					}
				}
			}
		}
	}
}
MOTION
Frames: 6
Frame Time: 0.041667
7.596602 13.945608 26.036019 -8.076566 -39.814988 8.418819 10.556909 11.282293 -49.466496 5.695826 15.309251 44.364342 2.335237 -3.820537 22.476596 0.925500 -6.128900 -17.159000 -5.167891 -17.668506 -21.579127 -10.885493 -18.042462 60.935551 0.768309 -8.428308 -17.312864 -1.266700 7.133900 -20.112600 -1.643174 8.023801 -3.456230 -14.103330 4.955949 3.964172 13.452441 -9.206177 15.124560 7.169000 -4.581700 5.949000 33.367968 -12.868705 -24.537918 103.512557 -59.608512 -78.810614 -1.552459 -2.360787 -56.221311 -7.125000 0.000000 0.000000 -43.973244 16.993398 -59.344438 -16.750556 28.414000 -5.379186 0.853562 2.031208 -5.615170 7.125000 0.000000 0.000000 
7.639351 13.903475 25.995834 -7.786009 -40.127695 8.013443 10.385444 11.501321 -49.580848 5.787218 15.391783 44.713050 2.340264 -3.923403 22.473706 0.916800 -6.100700 -17.076900 -5.556337 -17.860984 -22.153306 -11.174324 -18.230578 61.798423 0.726396 -8.289891 -17.295923 -1.288800 7.193300 -20.289500 -1.526438 8.581965 -3.409240 -13.741407 5.253917 3.912579 13.553644 -9.502915 14.512784 7.343200 -4.800600 5.615300 33.390928 -12.046789 -25.930543 98.804577 -59.897909 -75.497806 -1.495608 -1.988704 -53.990023 -7.125000 0.000000 0.000000 -43.229198 17.681539 -55.391763 -14.503121 26.064648 -4.426035 0.044251 2.337879 -0.455442 7.125000 0.000000 0.000000 
7.683227 13.861342 25.956776 -7.504451 -40.379366 7.606495 10.229927 11.658257 -49.652338 5.872581 15.469460 45.033512 2.340073 -3.975764 22.484156 0.879000 -5.976900 -16.717400 -5.957468 -18.121520 -22.647515 -11.447312 -18.411930 62.609735 0.624281 -7.936600 -17.328985 -1.240700 7.063000 -19.902100 -1.441134 8.941747 -3.289048 -13.409296 5.489303 4.187766 13.455506 -9.731252 13.944434 7.337700 -4.924900 5.392500 33.595104 -10.650035 -27.275081 93.795938 -59.858574 -71.964017 -1.398929 -1.614380 -51.251879 -7.125000 0.000000 0.000000 -42.529083 18.668027 -52.604842 -13.067823 24.713043 -4.138675 -1.056819 2.480317 7.195176 7.125000 0.000000 0.000000 
7.729563 13.819208 25.916385 -7.185604 -40.602069 7.141755 10.065461 11.743973 -49.670252 5.948943 15.538918 45.321512 2.335213 -4.008428 22.464646 0.832400 -5.820400 -16.264100 -6.395834 -18.450331 -23.136541 -11.713550 -18.583541 63.387778 0.574157 -7.767684 -17.329337 -1.268800 7.139500 -20.129300 -1.349549 9.104042 -3.200277 -13.059980 5.609406 4.342304 12.897057 -9.850985 13.657223 7.077300 -4.980300 5.261600 33.882184 -9.733147 -28.368027 87.883835 -59.257208 -67.475626 -1.180632 -1.251134 -47.522633 -7.125000 0.000000 0.000000 -41.413148 19.569971 -47.851252 -13.156857 24.905804 -4.555867 -2.244791 2.572265 13.780869 7.125000 0.000000 0.000000 
7.780103 13.775948 25.872612 -6.831973 -40.783154 6.651933 9.881851 11.771953 -49.699321 6.018689 15.602637 45.589256 2.326970 -4.031442 22.420161 0.795900 -5.694600 -15.900800 -6.872402 -18.789858 -23.608334 -11.977625 -18.749359 64.149124 0.509569 -7.526406 -17.292852 -1.267800 7.136800 -20.121200 -1.263531 9.130128 -3.116495 -12.580664 5.647855 4.471998 12.584482 -9.729884 13.041403 7.033400 -4.944600 4.944400 34.333125 -8.106970 -29.630340 83.098346 -58.490371 -63.773007 -0.878703 -0.908861 -44.334481 -7.125000 0.000000 0.000000 -40.412147 20.657399 -42.754828 -14.335415 26.197738 -5.295957 -3.123388 2.647606 18.828081 7.125000 0.000000 0.000000 
7.833820 13.729816 25.822072 -6.415174 -40.990762 6.105764 9.652671 11.807630 -49.726681 6.076760 15.654669 45.818895 2.320899 -4.055540 22.390769 0.776900 -5.627800 -15.708200 -7.391657 -19.041699 -24.107721 -12.256737 -18.916684 64.952363 0.455603 -7.324970 -17.258966 -1.287900 7.191100 -20.282900 -1.189226 9.038666 -3.063477 -12.185860 5.605543 4.432986 11.991586 -9.682053 12.591842 6.826500 -4.928400 4.743800 34.810307 -6.733596 -30.820816 78.650321 -57.562013 -60.095586 -0.544178 -0.788310 -40.230610 -7.125000 0.000000 0.000000 -38.952496 21.305114 -35.126034 -17.129196 28.934247 -6.685593 -3.550628 2.543615 17.608713 7.125000 0.000000 0.000000 
